<svg width="26" height="26" viewBox="0 0 26 26" fill="none" xmlns="http://www.w3.org/2000/svg">
<circle cx="12" cy="12" r="12" fill="white"/>
<path d="M15.4465 7.55058H16.9667V4.77513H14.204C13.9736 4.76554 11.1642 4.71184 10.4361 7.48857C10.4255 7.51766 10.1928 8.17804 10.1928 9.72063L7.66669 9.7283V12.6393L10.196 12.6319V20.3101H14.0595V12.6386H16.6167V9.71999H14.0595V8.80166C14.0595 8.23078 14.3002 7.55058 15.4465 7.55058ZM15.9774 10.359V11.999H13.4203V19.6705H10.8353V11.9907L8.30597 11.9981V10.3657L10.842 10.3583L10.8353 10.0332C10.8021 8.39923 11.0351 7.712 11.0456 7.67908C11.674 5.28751 14.0736 5.4077 14.1765 5.41409L16.3274 5.41473V6.91162H15.4465C13.9528 6.91162 13.4206 7.8878 13.4206 8.80134V10.359H15.9774Z" fill="#F38DB7"/>
</svg>
