<svg width="26" height="26" viewBox="0 0 26 26" fill="none" xmlns="http://www.w3.org/2000/svg">
<circle cx="12" cy="12" r="12" fill="#FFEAF3"/>
<path d="M14.981 5.5H9.01898C7.07858 5.5 5.5 7.07858 5.5 9.01898V14.9811C5.5 16.9214 7.07858 18.5 9.01898 18.5H14.9811C16.9214 18.5 18.5 16.9214 18.5 14.9811V9.01898C18.5 7.07858 16.9214 5.5 14.981 5.5V5.5ZM17.7379 14.9811C17.7379 16.5012 16.5012 17.7379 14.981 17.7379H9.01898C7.49882 17.7379 6.26212 16.5012 6.26212 14.9811V9.01898C6.26212 7.49882 7.49882 6.26212 9.01898 6.26212H14.9811C16.5012 6.26212 17.7379 7.49882 17.7379 9.01898V14.9811Z" fill="#F38DB7"/>
<path d="M12 8.75C10.2079 8.75 8.75 10.2079 8.75 12C8.75 13.7921 10.2079 15.25 12 15.25C13.7921 15.25 15.25 13.7921 15.25 12C15.25 10.2079 13.7921 8.75 12 8.75ZM12 14.5532C10.5922 14.5532 9.44681 13.4079 9.44681 12C9.44681 10.5922 10.5922 9.44681 12 9.44681C13.4079 9.44681 14.5532 10.5922 14.5532 12C14.5532 13.4079 13.4079 14.5532 12 14.5532Z" fill="#F38DB7"/>
<path d="M15.25 7.66666C14.6526 7.66666 14.1667 8.15265 14.1667 8.74994C14.1667 9.34733 14.6526 9.83332 15.25 9.83332C15.8474 9.83332 16.3334 9.34733 16.3334 8.74994C16.3334 8.15255 15.8474 7.66666 15.25 7.66666ZM15.25 9.0472C15.0862 9.0472 14.9528 8.91381 14.9528 8.74994C14.9528 8.58596 15.0862 8.45268 15.25 8.45268C15.414 8.45268 15.5474 8.58596 15.5474 8.74994C15.5474 8.91381 15.414 9.0472 15.25 9.0472Z" fill="#F38DB7"/>
</svg>
