<svg width="36" height="36" viewBox="0 0 36 36" fill="none" xmlns="http://www.w3.org/2000/svg">
<rect width="36" height="36" rx="5" fill="#F38DB7"/>
<path d="M17.0554 10.0192C13.1651 10.0192 10 13.1757 10 17.0554C10 20.9351 13.1651 24.0916 17.0554 24.0916C20.9457 24.0916 24.1109 20.9351 24.1109 17.0554C24.1109 13.1757 20.9457 10.0192 17.0554 10.0192ZM17.0554 22.9349C13.8028 22.9349 11.1566 20.2972 11.1566 17.0554C11.1566 13.8133 13.8028 11.1758 17.0554 11.1758C20.3081 11.1758 22.9542 13.8133 22.9542 17.0554C22.9542 20.2972 20.3081 22.9349 17.0554 22.9349Z" fill="white"/>
<path d="M25.8297 24.9924L22.0321 21.2141C21.8056 20.9889 21.4395 20.9899 21.2141 21.2162C20.989 21.4427 20.99 21.8088 21.2163 22.0341L25.0139 25.8125C25.1268 25.9246 25.2741 25.9807 25.4218 25.9807C25.5704 25.9807 25.7188 25.9239 25.8318 25.8103C26.057 25.5838 26.056 25.2177 25.8297 24.9924Z" fill="white"/>
</svg>
