<svg width="26" height="26" viewBox="0 0 26 26" fill="none" xmlns="http://www.w3.org/2000/svg">
<circle cx="12" cy="12" r="12" fill="white"/>
<path d="M17.7896 14.4537C17.4757 14.0775 17.1211 13.7416 16.7781 13.4168C16.6576 13.3026 16.5329 13.1845 16.4128 13.0673C16.4128 13.0673 16.4127 13.0673 16.4127 13.0672C16.2512 12.9097 16.1722 12.7979 16.1639 12.7153C16.1558 12.6341 16.2112 12.5137 16.3388 12.3357C16.5296 12.0679 16.733 11.7997 16.9297 11.5404C17.1046 11.3098 17.2854 11.0714 17.4586 10.8316L17.4975 10.7778C17.8356 10.3098 18.1852 9.82598 18.3725 9.23635C18.426 9.06729 18.4815 8.81712 18.3475 8.5975C18.2135 8.37782 17.965 8.31272 17.7898 8.2829C17.7043 8.26824 17.6231 8.26703 17.5476 8.26703L15.3546 8.26508C14.9755 8.25877 14.7124 8.43848 14.5691 8.79936C14.4544 9.08759 14.3189 9.42161 14.1619 9.73847C13.8616 10.3502 13.48 11.0547 12.9269 11.6417L12.9023 11.6679C12.8647 11.7081 12.8031 11.7738 12.7715 11.7889C12.7116 11.7512 12.6425 11.5359 12.6456 11.423C12.6457 11.4203 12.6458 11.4175 12.6458 11.4147L12.6438 8.88079C12.6438 8.86791 12.6429 8.85503 12.6412 8.84226C12.592 8.48076 12.4961 8.11835 11.924 8.00544C11.9056 8.0018 11.8869 8 11.8683 8H9.58712C9.15794 8 8.93093 8.19654 8.74894 8.40962C8.69626 8.47174 8.5563 8.63668 8.6276 8.83832C8.69976 9.04235 8.91476 9.08308 8.98533 9.09644C9.23393 9.14362 9.36248 9.28412 9.40228 9.55273C9.48094 10.0746 9.49058 10.633 9.43266 11.3089C9.41651 11.4904 9.38646 11.6283 9.33799 11.7431C9.32457 11.7748 9.31279 11.7945 9.30456 11.8061C9.29142 11.8008 9.27099 11.7906 9.24269 11.7713C9.068 11.6517 8.93635 11.4659 8.80903 11.2863C8.30051 10.5683 7.87278 9.77534 7.50121 8.86171C7.34819 8.48732 7.06053 8.27822 6.69176 8.27281C5.98915 8.26111 5.33934 8.26139 4.70585 8.27371C4.40706 8.27889 4.19753 8.37295 4.08299 8.55331C3.9683 8.734 3.9725 8.96439 4.0955 9.23818C4.97477 11.1934 5.77314 12.6157 6.68409 13.8501C7.3255 14.7191 7.97117 15.3223 8.71602 15.7485C9.49861 16.1962 10.3812 16.4156 11.4051 16.4156C11.5216 16.4156 11.64 16.4127 11.7601 16.407C12.3918 16.3782 12.6488 16.127 12.6768 15.5117C12.6926 15.1865 12.7288 14.9231 12.8543 14.6943C12.8894 14.6302 12.9291 14.5872 12.9603 14.5794C12.9935 14.5711 13.0524 14.5914 13.1179 14.6339C13.2376 14.7117 13.3406 14.8171 13.4254 14.9096C13.5113 15.0037 13.5981 15.1008 13.6821 15.1948C13.8609 15.3948 14.0458 15.6017 14.2395 15.799C14.6775 16.2455 15.1826 16.4503 15.7411 16.4074L17.748 16.4083C17.7481 16.4083 17.7481 16.4083 17.7482 16.4083C17.7545 16.4083 17.7609 16.4082 17.7673 16.4077C17.9988 16.3923 18.1989 16.2642 18.3164 16.056C18.4579 15.8054 18.4558 15.488 18.3106 15.2065C18.1591 14.9139 17.9625 14.6621 17.7896 14.4537ZM17.8158 15.7734C17.7882 15.8224 17.754 15.8313 17.7364 15.8335L15.7299 15.8325C15.7298 15.8325 15.7298 15.8325 15.7297 15.8325C15.7218 15.8325 15.7139 15.8328 15.706 15.8335C15.3107 15.8664 14.9747 15.7275 14.6498 15.3963C14.4655 15.2085 14.2851 15.0068 14.1108 14.8117C14.0258 14.7166 13.9379 14.6183 13.8497 14.5217C13.7402 14.4021 13.6049 14.2647 13.431 14.1518C13.1707 13.9828 12.9549 13.9879 12.8199 14.022C12.6862 14.0557 12.4961 14.1518 12.3503 14.418C12.1613 14.7624 12.1196 15.1339 12.1027 15.4849C12.0929 15.6995 12.0566 15.7563 12.0414 15.7707C12.0215 15.7895 11.9551 15.8227 11.7336 15.8329C10.6688 15.8829 9.77531 15.6922 9.00154 15.2495C8.32842 14.8644 7.73901 14.3112 7.14669 13.5088C6.26097 12.3087 5.48165 10.9189 4.61989 9.00258C4.58866 8.93316 4.57902 8.88984 4.57623 8.86664C4.59821 8.85943 4.64117 8.84993 4.71648 8.84855C5.34354 8.8364 5.98656 8.83606 6.68282 8.84767C6.77814 8.84908 6.88669 8.87769 6.96887 9.07879C7.3571 10.0334 7.80555 10.8642 8.33995 11.6186C8.48183 11.8189 8.65844 12.0682 8.918 12.2457C9.15574 12.4085 9.34867 12.4008 9.46868 12.3656C9.58875 12.3304 9.75538 12.2326 9.86762 11.9669C9.94002 11.7956 9.98379 11.6027 10.0055 11.359C10.0674 10.636 10.0564 10.0348 9.97094 9.46783C9.91071 9.0616 9.70096 8.76813 9.37054 8.61827C9.42922 8.58772 9.49534 8.57498 9.58717 8.57498H11.8385C11.9652 8.60339 11.9903 8.63676 11.9989 8.64818C12.0353 8.69668 12.0562 8.81143 12.0689 8.90108L12.0709 11.4117C12.0658 11.6523 12.1828 12.1861 12.581 12.3325C12.5843 12.3337 12.5876 12.3348 12.5909 12.3359C12.9535 12.4544 13.1933 12.1984 13.322 12.0609L13.345 12.0365C13.9508 11.3935 14.3588 10.6421 14.6776 9.99284C14.8437 9.65758 14.9844 9.31078 15.1034 9.01185C15.1629 8.86193 15.2171 8.83724 15.3463 8.83998C15.3481 8.84003 15.3498 8.84003 15.3516 8.84003L17.5474 8.84198C17.5985 8.84198 17.6518 8.84257 17.6931 8.84965C17.7978 8.86746 17.8409 8.88916 17.8551 8.89815C17.8565 8.91481 17.8562 8.96273 17.8246 9.06273C17.6653 9.56411 17.3575 9.99011 17.0316 10.4411L16.9927 10.495C16.8234 10.7293 16.6446 10.965 16.4718 11.193C16.2725 11.4557 16.0665 11.7274 15.8712 12.0015C15.4537 12.5841 15.4904 12.9706 16.0114 13.4789C16.1346 13.5991 16.2608 13.7187 16.3829 13.8343C16.729 14.1622 17.056 14.4718 17.3478 14.8215C17.5006 15.0057 17.6737 15.2268 17.8 15.4706C17.8658 15.5982 17.8497 15.7134 17.8158 15.7734Z" fill="#F38DB7"/>
<path d="M6.5129 10.4332C6.48212 10.3723 6.45161 10.3113 6.42139 10.2501C6.37011 10.1464 6.24453 10.1037 6.14071 10.155C6.03696 10.2063 5.99439 10.3319 6.04565 10.4357C6.07645 10.498 6.10753 10.5603 6.13886 10.6223C6.17574 10.6953 6.24952 10.7373 6.32603 10.7373C6.3578 10.7373 6.39008 10.7301 6.42038 10.7148C6.5237 10.6625 6.5651 10.5365 6.5129 10.4332Z" fill="#F38DB7"/>
<path d="M7.82721 12.6072C7.4836 12.1416 7.16215 11.636 6.84451 11.0613C6.78852 10.96 6.66102 10.9233 6.55975 10.9793C6.45848 11.0353 6.42174 11.1628 6.47773 11.2641C6.80432 11.8549 7.13546 12.3756 7.49003 12.8561C7.53113 12.9117 7.59455 12.9412 7.6588 12.9412C7.70202 12.9412 7.74562 12.9279 7.78306 12.9002C7.87615 12.8315 7.89591 12.7003 7.82721 12.6072Z" fill="#F38DB7"/>
</svg>
