<svg width="26" height="26" viewBox="0 0 26 26" fill="none" xmlns="http://www.w3.org/2000/svg">
<circle cx="12" cy="12" r="12" fill="#FFEAF3"/>
<path d="M15.4465 7.55061H16.9667V4.77516H14.2041C13.9736 4.76557 11.1643 4.71187 10.4361 7.4886C10.4256 7.51769 10.1929 8.17807 10.1929 9.72066L7.66675 9.72833V12.6393L10.1961 12.632V20.3101H14.0596V12.6387H16.6167V9.72002H14.0596V8.80169C14.0596 8.23081 14.3003 7.55061 15.4465 7.55061ZM15.9775 10.359V11.9991H13.4203V19.6705H10.8354V11.9908L8.30603 11.9981V10.3657L10.8421 10.3583L10.8354 10.0333C10.8021 8.39926 11.0351 7.71203 11.0457 7.67911C11.6741 5.28754 14.0737 5.40773 14.1766 5.41412L16.3275 5.41476V6.91165H15.4465C13.9528 6.91165 13.4206 7.88783 13.4206 8.80137V10.359H15.9775Z" fill="#F38DB7"/>
</svg>
