<svg width="18" height="18" viewBox="0 0 18 18" fill="none" xmlns="http://www.w3.org/2000/svg">
<path d="M0.158526 3.57617L5.61755 9.00004L0.158526 14.4239C0.0598431 14.2177 -2.86102e-05 13.9896 -2.86102e-05 13.7461V4.25395C-2.86102e-05 4.01042 0.0598431 3.78243 0.158526 3.57617Z" fill="white"/>
<path d="M1.58205 2.67188H16.418C16.6615 2.67188 16.8895 2.73175 17.0958 2.83043L10.1185 9.7725C9.50163 10.3894 8.49841 10.3894 7.88149 9.7725L0.904274 2.83043C1.11054 2.73175 1.33852 2.67188 1.58205 2.67188Z" fill="white"/>
<path d="M17.8414 3.57617C17.9401 3.78243 18 4.01042 18 4.25395V13.7461C18 13.9897 17.9401 14.2177 17.8414 14.4239L12.3824 9.00004L17.8414 3.57617Z" fill="white"/>
<path d="M6.3633 9.74561L7.13579 10.5181C8.16372 11.546 9.83635 11.546 10.8643 10.5181L11.6367 9.74561L17.0958 15.1695C16.8895 15.2682 16.6615 15.328 16.418 15.328H1.58205C1.33852 15.328 1.11054 15.2682 0.904274 15.1695L6.3633 9.74561Z" fill="white"/>
</svg>
