<svg width="26" height="26" viewBox="0 0 26 26" fill="none" xmlns="http://www.w3.org/2000/svg">
<circle cx="12" cy="12" r="12" fill="#FFEAF3"/>
<path d="M12.0005 4.41663C9.90943 4.41663 8.20886 6.1172 8.20886 8.20831C8.20886 10.2994 9.90943 12 12.0005 12C14.0917 12 15.7922 10.2994 15.7922 8.20831C15.7922 6.1172 14.0917 4.41663 12.0005 4.41663ZM12.0005 11.0521C10.4327 11.0521 9.15678 9.77617 9.15678 8.20831C9.15678 6.64045 10.4327 5.36455 12.0005 5.36455C13.5684 5.36455 14.8443 6.64045 14.8443 8.20831C14.8443 9.77617 13.5684 11.0521 12.0005 11.0521Z" fill="#F38DB7"/>
<path d="M15.707 18.8373L12.3893 14.0977C12.213 13.8456 11.7911 13.8456 11.6129 14.0977L8.29521 18.8373C8.14544 19.0515 8.19662 19.3473 8.4118 19.4971C8.62603 19.6478 8.92178 19.5957 9.07156 19.3814L12.0006 15.1963L14.9307 19.3814C15.0226 19.5132 15.1695 19.5833 15.3184 19.5833C15.4131 19.5833 15.507 19.5558 15.5914 19.4971C15.8056 19.3473 15.8577 19.0525 15.707 18.8373Z" fill="#F38DB7"/>
<path d="M16.6918 12.2294C16.5069 12.0445 16.2064 12.0445 16.0216 12.2294C13.8025 14.4475 10.1957 14.4475 7.97849 12.2294C7.79365 12.0445 7.49316 12.0445 7.30831 12.2294C7.12347 12.4142 7.12347 12.7147 7.30831 12.8995C8.60222 14.1925 10.3018 14.8399 12.0005 14.8399C13.6992 14.8399 15.3988 14.1925 16.6918 12.8995C16.8766 12.7147 16.8766 12.4142 16.6918 12.2294Z" fill="#F38DB7"/>
</svg>
