<svg width="26" height="26" viewBox="0 0 26 26" fill="none" xmlns="http://www.w3.org/2000/svg">
<circle cx="12" cy="12" r="12" fill="white"/>
<path d="M12.0005 4.4165C9.90937 4.4165 8.2088 6.11707 8.2088 8.20819C8.2088 10.2993 9.90937 11.9999 12.0005 11.9999C14.0916 11.9999 15.7922 10.2993 15.7922 8.20819C15.7922 6.11707 14.0916 4.4165 12.0005 4.4165ZM12.0005 11.0519C10.4326 11.0519 9.15672 9.77605 9.15672 8.20819C9.15672 6.64033 10.4326 5.36442 12.0005 5.36442C13.5683 5.36442 14.8442 6.64033 14.8442 8.20819C14.8442 9.77605 13.5683 11.0519 12.0005 11.0519Z" fill="#F38DB7"/>
<path d="M15.7069 18.8374L12.3892 14.0978C12.2128 13.8457 11.791 13.8457 11.6128 14.0978L8.29509 18.8374C8.14531 19.0516 8.1965 19.3474 8.41168 19.4972C8.62591 19.6479 8.92166 19.5957 9.07143 19.3815L12.0005 15.1964L14.9305 19.3815C15.0225 19.5133 15.1694 19.5834 15.3182 19.5834C15.413 19.5834 15.5069 19.5559 15.5912 19.4972C15.8055 19.3474 15.8576 19.0526 15.7069 18.8374Z" fill="#F38DB7"/>
<path d="M16.6917 12.2295C16.5069 12.0446 16.2064 12.0446 16.0215 12.2295C13.8025 14.4476 10.1956 14.4476 7.97843 12.2295C7.79359 12.0446 7.49309 12.0446 7.30825 12.2295C7.12341 12.4143 7.12341 12.7148 7.30825 12.8996C8.60216 14.1926 10.3018 14.84 12.0005 14.84C13.6991 14.84 15.3988 14.1926 16.6917 12.8996C16.8766 12.7148 16.8766 12.4143 16.6917 12.2295Z" fill="#F38DB7"/>
</svg>
