<svg width="419" height="339" viewBox="0 0 419 339" fill="none" xmlns="http://www.w3.org/2000/svg">
<g clip-path="url(#clip0)">
<path d="M329.905 263.88C329.821 263.713 329.682 263.63 329.487 263.574C329.32 263.518 329.125 263.546 328.986 263.657L326.759 264.965L325.45 262.74C325.367 262.573 325.227 262.489 325.032 262.434C324.865 262.378 324.671 262.406 324.531 262.517C324.364 262.601 324.281 262.74 324.225 262.934C324.169 263.101 324.197 263.296 324.309 263.435L325.617 265.66L323.39 266.967C323.223 267.05 323.139 267.19 323.084 267.384C323.028 267.579 323.056 267.746 323.167 267.885C323.251 268.052 323.39 268.135 323.585 268.191C323.752 268.246 323.947 268.219 324.086 268.107L326.313 266.8L327.622 269.025C327.761 269.275 328.067 269.387 328.318 269.331C328.401 269.303 328.457 269.303 328.541 269.248C328.847 269.053 328.958 268.664 328.763 268.33L327.455 266.105L329.682 264.798C329.988 264.603 330.1 264.186 329.905 263.88Z" fill="#DEDEDE"/>
<path d="M335.529 278.537C333.914 278.537 332.605 277.23 332.605 275.617C332.605 274.003 333.914 272.696 335.529 272.696C337.144 272.696 338.452 274.003 338.452 275.617C338.425 277.23 337.116 278.537 335.529 278.537ZM335.529 274.282C334.777 274.282 334.165 274.893 334.165 275.644C334.165 276.395 334.777 277.007 335.529 277.007C336.281 277.007 336.893 276.395 336.893 275.644C336.893 274.893 336.281 274.282 335.529 274.282Z" fill="#DEDEDE"/>
<path d="M41.4303 321.228C39.8154 321.228 38.5068 319.921 38.5068 318.308C38.5068 316.695 39.8154 315.388 41.4303 315.388C43.0451 315.388 44.3537 316.695 44.3537 318.308C44.3537 319.921 43.0451 321.228 41.4303 321.228ZM41.4303 316.973C40.6785 316.973 40.066 317.585 40.066 318.336C40.066 319.087 40.6785 319.699 41.4303 319.699C42.182 319.699 42.7946 319.087 42.7946 318.336C42.7946 317.585 42.182 316.973 41.4303 316.973Z" fill="#DEDEDE"/>
<path d="M363.873 8.48265C362.258 8.48265 360.949 7.17549 360.949 5.56239C360.949 3.9493 362.258 2.64214 363.873 2.64214C365.488 2.64214 366.796 3.9493 366.796 5.56239C366.768 7.17549 365.46 8.48265 363.873 8.48265ZM363.873 4.19961C363.121 4.19961 362.508 4.81147 362.508 5.56239C362.508 6.31331 363.121 6.92518 363.873 6.92518C364.624 6.92518 365.237 6.31331 365.237 5.56239C365.237 4.81147 364.624 4.19961 363.873 4.19961Z" fill="#DEDEDE"/>
<path d="M413.71 82.1287C413.543 82.2122 413.431 82.3512 413.376 82.5181C413.32 82.685 413.32 82.8797 413.404 83.0187L414.545 85.3271L412.234 86.4674C412.067 86.5508 411.956 86.6899 411.9 86.8568C411.844 87.0236 411.844 87.2183 411.928 87.3574C412.012 87.5243 412.151 87.6355 412.318 87.6911C412.485 87.7468 412.68 87.7468 412.819 87.6633L415.13 86.523L416.271 88.8314C416.355 88.9983 416.494 89.1096 416.661 89.1652C416.828 89.2208 417.023 89.2208 417.162 89.1374C417.329 89.0539 417.441 88.9149 417.496 88.748C417.552 88.5811 417.552 88.3864 417.469 88.2474L416.327 85.939L418.638 84.7987C418.889 84.6596 419.028 84.3815 419 84.1312C419 84.0478 418.972 83.9921 418.944 83.9087C418.777 83.575 418.387 83.4359 418.053 83.6028L415.742 84.7431L414.601 82.4347C414.434 82.1009 414.044 81.9619 413.71 82.1287Z" fill="#DEDEDE"/>
<path d="M371.64 137.475C370.025 137.475 368.717 136.167 368.717 134.554C368.717 132.941 370.025 131.634 371.64 131.634C373.255 131.634 374.564 132.941 374.564 134.554C374.564 136.167 373.255 137.475 371.64 137.475ZM371.64 133.219C370.888 133.219 370.276 133.831 370.276 134.582C370.276 135.333 370.888 135.945 371.64 135.945C372.392 135.945 373.004 135.333 373.004 134.582C373.004 133.831 372.392 133.219 371.64 133.219Z" fill="#DEDEDE"/>
<path d="M0.36245 178.024C0.223238 178.136 0.167553 178.303 0.139711 178.497C0.139711 178.664 0.195395 178.859 0.306765 178.97L2.06083 180.833L0.195395 182.586C0.0561834 182.697 0.000498632 182.864 -0.0273438 183.058C-0.0273438 183.225 0.028341 183.42 0.139711 183.531C0.25108 183.67 0.418134 183.726 0.613031 183.754C0.780085 183.754 0.974982 183.698 1.08635 183.587L2.95179 181.835L4.70586 183.698C4.81723 183.837 4.98429 183.893 5.17918 183.921C5.37408 183.948 5.54113 183.865 5.6525 183.754C5.79171 183.642 5.8474 183.476 5.87524 183.281C5.87524 183.114 5.81956 182.919 5.70819 182.808L3.95412 180.945L5.81956 179.192C6.0423 178.998 6.09798 178.692 5.98661 178.442C5.95877 178.386 5.90308 178.303 5.87524 178.247C5.62466 177.969 5.20702 177.969 4.9286 178.219L3.06316 179.943L1.30909 178.08C1.05851 177.802 0.613031 177.774 0.36245 178.024Z" fill="#DEDEDE"/>
<path d="M29.0406 210.008C27.4258 210.008 26.1172 208.701 26.1172 207.088C26.1172 205.475 27.4258 204.168 29.0406 204.168C30.6555 204.168 31.9641 205.475 31.9641 207.088C31.9641 208.701 30.6555 210.008 29.0406 210.008ZM29.0406 205.753C28.2889 205.753 27.6764 206.365 27.6764 207.116C27.6764 207.867 28.2889 208.478 29.0406 208.478C29.7924 208.478 30.4049 207.867 30.4049 207.116C30.4049 206.365 29.7924 205.753 29.0406 205.753Z" fill="#DEDEDE"/>
<path d="M79.1841 301.426C78.8779 301.426 78.5994 301.176 78.5994 300.87C78.5716 300.536 78.8222 300.258 79.1563 300.258C81.1053 300.147 83.0821 299.952 85.031 299.674C85.3651 299.618 85.6436 299.841 85.6992 300.175C85.7549 300.508 85.5322 300.786 85.1981 300.842C83.2213 301.12 81.2166 301.315 79.212 301.426H79.1841ZM70.8314 301.398H70.8036C68.8268 301.287 66.7943 301.064 64.8453 300.759C64.5112 300.703 64.2885 300.397 64.3441 300.091C64.3998 299.757 64.7061 299.535 65.0124 299.59C66.9613 299.869 68.9381 300.091 70.8871 300.202C71.2212 300.23 71.4718 300.508 71.444 300.842C71.4161 301.176 71.1655 301.398 70.8314 301.398ZM93.2724 299.201C93.0218 299.201 92.7712 299.034 92.6877 298.756C92.6042 298.45 92.7991 298.116 93.1053 298.033C94.9986 297.532 96.8919 296.948 98.7573 296.309C99.0636 296.197 99.3977 296.364 99.5091 296.67C99.6204 296.976 99.4534 297.31 99.1471 297.421C97.2817 298.089 95.3327 298.673 93.4116 299.173C93.3838 299.201 93.3281 299.201 93.2724 299.201ZM56.771 299.062C56.7153 299.062 56.6596 299.062 56.604 299.034C54.6828 298.506 52.7617 297.894 50.8963 297.199C50.59 297.087 50.423 296.754 50.5343 296.448C50.6457 296.142 50.9798 295.975 51.2861 296.086C53.1237 296.754 55.0169 297.365 56.9102 297.866C57.2165 297.95 57.4114 298.283 57.3279 298.589C57.2722 298.895 57.0216 299.062 56.771 299.062ZM106.637 294.223C106.414 294.223 106.219 294.111 106.108 293.889C105.969 293.583 106.08 293.249 106.386 293.082C108.14 292.22 109.894 291.247 111.565 290.246C111.843 290.079 112.205 290.162 112.372 290.44C112.539 290.718 112.456 291.08 112.177 291.247C110.479 292.276 108.697 293.249 106.915 294.139C106.832 294.195 106.72 294.223 106.637 294.223ZM43.4345 293.945C43.351 293.945 43.2396 293.917 43.1561 293.889C41.3742 292.999 39.6201 291.998 37.9217 290.941C37.6433 290.774 37.5598 290.412 37.7268 290.134C37.8939 289.856 38.2558 289.773 38.5343 289.94C40.2048 290.969 41.931 291.942 43.6851 292.832C43.9635 292.971 44.1027 293.333 43.9357 293.639C43.8522 293.806 43.6573 293.945 43.4345 293.945ZM118.72 286.63C118.553 286.63 118.358 286.547 118.247 286.408C118.052 286.157 118.08 285.768 118.358 285.573C119.89 284.377 121.421 283.07 122.841 281.735C123.092 281.513 123.454 281.54 123.676 281.763C123.899 282.013 123.871 282.375 123.648 282.597C122.173 283.96 120.641 285.267 119.082 286.491C118.971 286.574 118.832 286.63 118.72 286.63ZM31.4345 286.241C31.2952 286.241 31.1839 286.185 31.0725 286.102C29.5133 284.85 27.982 283.543 26.5342 282.18C26.2836 281.958 26.2836 281.568 26.5063 281.346C26.7291 281.095 27.1189 281.096 27.3416 281.318C28.7616 282.653 30.2651 283.96 31.7964 285.184C32.047 285.379 32.1027 285.768 31.8799 286.018C31.7686 286.157 31.6015 286.241 31.4345 286.241ZM129.022 276.757C128.883 276.757 128.744 276.701 128.632 276.618C128.382 276.395 128.354 276.034 128.577 275.783C129.857 274.282 131.082 272.724 132.224 271.139C132.419 270.861 132.781 270.805 133.059 271C133.338 271.194 133.393 271.556 133.198 271.834C132.029 273.447 130.804 275.033 129.495 276.562C129.356 276.673 129.189 276.757 129.022 276.757ZM21.1885 276.312C21.0214 276.312 20.8543 276.228 20.743 276.089C19.4622 274.56 18.2372 272.974 17.0956 271.334C16.9007 271.055 16.9843 270.694 17.2348 270.499C17.5133 270.304 17.8752 270.388 18.0701 270.638C19.1838 272.251 20.4089 273.809 21.6618 275.311C21.8845 275.561 21.8288 275.922 21.5782 276.145C21.4669 276.256 21.3277 276.312 21.1885 276.312ZM137.124 265.02C137.041 265.02 136.929 264.992 136.846 264.937C136.567 264.77 136.456 264.408 136.623 264.13C137.57 262.406 138.461 260.626 139.24 258.846C139.379 258.54 139.713 258.401 140.02 258.54C140.326 258.679 140.465 259.013 140.326 259.319C139.519 261.127 138.628 262.934 137.653 264.686C137.514 264.909 137.319 265.02 137.124 265.02ZM13.1977 264.492C12.975 264.492 12.7801 264.381 12.6687 264.186C11.722 262.434 10.8311 260.626 10.0515 258.79C9.91229 258.484 10.0515 258.151 10.3578 258.012C10.664 257.873 10.9981 258.012 11.1374 258.318C11.9169 260.125 12.7801 261.905 13.7267 263.63C13.8937 263.908 13.7824 264.269 13.4761 264.436C13.3647 264.492 13.2812 264.492 13.1977 264.492ZM142.693 251.893C142.637 251.893 142.581 251.893 142.526 251.865C142.219 251.782 142.024 251.448 142.136 251.114C142.72 249.251 143.222 247.332 143.639 245.413C143.723 245.107 144.029 244.884 144.335 244.968C144.642 245.051 144.864 245.357 144.781 245.663C144.363 247.61 143.834 249.557 143.249 251.476C143.194 251.726 142.943 251.893 142.693 251.893ZM7.74058 251.337C7.49 251.337 7.23942 251.17 7.18373 250.92C6.62689 249.028 6.12572 247.054 5.70809 245.107C5.6524 244.773 5.8473 244.467 6.15357 244.412C6.48768 244.356 6.79394 244.551 6.84963 244.857C7.26726 246.776 7.74058 248.695 8.29743 250.586C8.38096 250.892 8.2139 251.225 7.90764 251.309C7.85195 251.337 7.79627 251.337 7.74058 251.337ZM145.533 237.904C145.505 237.904 145.505 237.904 145.477 237.904C145.143 237.876 144.92 237.57 144.948 237.264C145.143 235.317 145.254 233.342 145.282 231.368C145.282 231.034 145.56 230.784 145.894 230.784C146.229 230.784 146.479 231.062 146.479 231.396C146.451 233.398 146.34 235.4 146.145 237.375C146.089 237.681 145.839 237.904 145.533 237.904ZM5.03987 237.319C4.73361 237.319 4.48302 237.097 4.45518 236.791C4.28813 234.816 4.17676 232.786 4.17676 230.811C4.17676 230.478 4.42734 230.227 4.76145 230.227C5.09556 230.227 5.34614 230.478 5.34614 230.811C5.34614 232.758 5.45751 234.761 5.62456 236.708C5.6524 237.041 5.40182 237.319 5.09556 237.347C5.06771 237.319 5.03987 237.319 5.03987 237.319ZM145.449 223.664C145.143 223.664 144.892 223.441 144.864 223.135C144.669 221.189 144.363 219.242 144.001 217.295L143.973 217.211C143.918 216.878 144.113 216.572 144.447 216.516C144.781 216.461 145.087 216.655 145.143 216.989L145.171 217.072C145.56 219.047 145.839 221.022 146.062 222.996C146.089 223.33 145.867 223.608 145.533 223.636C145.505 223.664 145.477 223.664 145.449 223.664ZM5.20693 223.08C5.17908 223.08 5.15124 223.08 5.15124 223.08C4.81713 223.052 4.59439 222.746 4.62224 222.412C4.84498 220.438 5.15124 218.435 5.56888 216.488C5.62456 216.155 5.95867 215.96 6.26494 216.016C6.59905 216.071 6.79394 216.405 6.73826 216.711C6.34846 218.63 6.0422 220.604 5.81946 222.551C5.73593 222.857 5.48535 223.08 5.20693 223.08ZM142.498 209.619C142.247 209.619 142.024 209.452 141.941 209.202C141.356 207.338 140.66 205.475 139.908 203.667C139.797 203.361 139.936 203.027 140.242 202.888C140.549 202.777 140.883 202.916 141.022 203.222C141.774 205.058 142.47 206.949 143.082 208.868C143.194 209.174 142.999 209.508 142.693 209.619C142.637 209.619 142.553 209.619 142.498 209.619ZM8.24175 209.146C8.18606 209.146 8.13038 209.146 8.04685 209.118C7.74058 209.007 7.57353 208.673 7.65706 208.367C8.26959 206.476 8.99349 204.585 9.77308 202.749C9.91229 202.443 10.2464 202.304 10.5527 202.443C10.8589 202.582 10.9981 202.916 10.8589 203.222C10.0793 205.03 9.38328 206.893 8.77075 208.757C8.71507 208.979 8.49233 209.146 8.24175 209.146ZM136.818 196.547C136.623 196.547 136.4 196.436 136.289 196.241C135.342 194.545 134.284 192.848 133.171 191.235C132.976 190.957 133.059 190.595 133.338 190.401C133.616 190.206 133.978 190.289 134.173 190.568C135.287 192.208 136.345 193.933 137.319 195.657C137.486 195.935 137.375 196.297 137.096 196.464C137.013 196.519 136.929 196.547 136.818 196.547ZM14.033 196.102C13.9216 196.102 13.8381 196.074 13.7267 196.019C13.4483 195.852 13.3369 195.49 13.504 195.212C14.5063 193.488 15.5643 191.763 16.7058 190.123C16.9007 189.844 17.2627 189.789 17.5411 189.984C17.8195 190.178 17.8752 190.54 17.6803 190.818C16.5666 192.431 15.5086 194.1 14.5341 195.824C14.4506 195.991 14.2557 196.102 14.033 196.102ZM128.604 184.894C128.437 184.894 128.27 184.838 128.159 184.699C126.878 183.225 125.514 181.779 124.094 180.416C123.871 180.194 123.843 179.804 124.094 179.582C124.317 179.359 124.706 179.332 124.929 179.582C126.349 180.972 127.741 182.447 129.05 183.948C129.273 184.199 129.245 184.56 128.994 184.783C128.883 184.838 128.744 184.894 128.604 184.894ZM22.33 184.505C22.1908 184.505 22.0516 184.449 21.9402 184.366C21.6896 184.143 21.6618 183.781 21.8845 183.531C23.1931 182.029 24.5852 180.583 26.033 179.192C26.2558 178.97 26.6456 178.97 26.8683 179.22C27.091 179.443 27.091 179.832 26.8405 180.055C25.4205 181.417 24.0562 182.836 22.7476 184.31C22.6641 184.449 22.497 184.505 22.33 184.505ZM118.219 175.132C118.08 175.132 117.969 175.104 117.857 175.021C116.298 173.825 114.683 172.684 113.013 171.628C112.734 171.461 112.651 171.071 112.846 170.821C113.013 170.543 113.375 170.46 113.653 170.654C115.324 171.739 116.994 172.879 118.581 174.103C118.832 174.298 118.887 174.687 118.692 174.937C118.553 175.049 118.386 175.132 118.219 175.132ZM32.7987 174.798C32.6317 174.798 32.4368 174.715 32.3254 174.576C32.1305 174.325 32.1862 173.936 32.4368 173.741C34.0238 172.545 35.6943 171.405 37.3649 170.32C37.6433 170.154 38.0053 170.237 38.1723 170.515C38.3394 170.793 38.2558 171.155 37.9774 171.322C36.3069 172.379 34.692 173.491 33.1328 174.687C33.0493 174.77 32.9101 174.798 32.7987 174.798ZM106.052 167.651C105.969 167.651 105.885 167.623 105.801 167.595C104.047 166.733 102.21 165.954 100.372 165.231C100.066 165.12 99.9267 164.758 100.038 164.452C100.149 164.146 100.511 164.007 100.818 164.118C102.683 164.842 104.521 165.648 106.33 166.51C106.637 166.649 106.748 167.011 106.609 167.289C106.498 167.539 106.275 167.651 106.052 167.651ZM44.9937 167.4C44.771 167.4 44.5482 167.289 44.4647 167.066C44.3255 166.761 44.4368 166.427 44.7431 166.288C46.5529 165.426 48.3905 164.647 50.2837 163.952C50.59 163.84 50.9241 163.979 51.0355 164.285C51.1469 164.591 51.0076 164.925 50.7014 165.036C48.8638 165.732 47.0262 166.51 45.2721 167.345C45.1607 167.4 45.0772 167.4 44.9937 167.4ZM92.6598 162.756C92.6042 162.756 92.5485 162.756 92.5206 162.728C90.6273 162.255 88.6784 161.838 86.7294 161.504C86.3953 161.448 86.2004 161.143 86.2283 160.837C86.2839 160.503 86.5902 160.308 86.8965 160.336C88.8733 160.67 90.8501 161.087 92.7712 161.56C93.0775 161.643 93.2724 161.949 93.1889 162.283C93.161 162.561 92.9104 162.756 92.6598 162.756ZM58.4416 162.644C58.1631 162.644 57.9404 162.45 57.8569 162.199C57.7733 161.893 57.9682 161.56 58.3023 161.476C59.4717 161.198 60.6968 160.92 61.894 160.698C62.6458 160.558 63.4253 160.419 64.2049 160.28C64.539 160.225 64.8453 160.447 64.8731 160.781C64.9288 161.115 64.7061 161.421 64.372 161.448C63.6202 161.56 62.8407 161.699 62.0889 161.838C60.9195 162.06 59.7223 162.311 58.5808 162.617C58.5251 162.644 58.4972 162.644 58.4416 162.644ZM78.5438 160.67C78.5159 160.67 78.5159 160.67 78.5438 160.67C77.4857 160.614 76.4277 160.586 75.3976 160.586C74.4788 160.586 73.5321 160.614 72.6133 160.642C72.2792 160.67 72.0008 160.392 72.0008 160.086C72.0008 159.752 72.2514 159.474 72.5576 159.474C73.5043 159.446 74.4509 159.418 75.3697 159.418C76.4277 159.418 77.4857 159.446 78.5438 159.502C78.8779 159.529 79.1284 159.78 79.1006 160.113C79.1006 160.419 78.85 160.67 78.5438 160.67Z" fill="#DEDEDE"/>
<path d="M292.178 247.666C291.844 247.693 291.51 247.721 291.148 247.721C290.814 247.749 290.535 247.499 290.535 247.165C290.507 246.831 290.758 246.553 291.092 246.553C293.041 246.442 294.99 246.275 296.911 246.08C297.245 246.052 297.524 246.275 297.552 246.609C297.579 246.942 297.357 247.221 297.023 247.248C295.408 247.415 293.793 247.554 292.178 247.666ZM282.934 247.916C282.906 247.916 282.906 247.916 282.879 247.916C280.93 247.888 278.925 247.832 276.976 247.721C276.642 247.693 276.391 247.415 276.419 247.109C276.447 246.776 276.725 246.525 277.032 246.553C278.981 246.664 280.93 246.72 282.879 246.748C283.213 246.748 283.463 247.026 283.463 247.332C283.463 247.638 283.241 247.888 282.934 247.916ZM305.153 246.136C304.846 246.164 304.596 245.941 304.54 245.635C304.484 245.302 304.707 244.996 305.013 244.94C306.934 244.606 308.856 244.245 310.749 243.827C311.055 243.744 311.389 243.967 311.445 244.272C311.528 244.578 311.306 244.912 310.999 244.968C309.078 245.385 307.129 245.774 305.208 246.108C305.208 246.136 305.18 246.136 305.153 246.136ZM268.874 246.97C268.846 246.97 268.79 246.97 268.763 246.97C266.814 246.72 264.865 246.442 262.916 246.108C262.582 246.052 262.387 245.747 262.442 245.413C262.498 245.079 262.804 244.884 263.138 244.94C265.059 245.274 267.008 245.552 268.93 245.802C269.264 245.83 269.486 246.136 269.431 246.47C269.375 246.748 269.124 246.942 268.874 246.97ZM318.907 242.993C318.628 243.021 318.378 242.826 318.294 242.576C318.211 242.27 318.378 241.936 318.712 241.853C320.577 241.324 322.443 240.713 324.28 240.101C324.586 239.989 324.921 240.156 325.032 240.462C325.143 240.768 324.976 241.102 324.67 241.213C322.805 241.853 320.911 242.437 319.046 242.993C318.99 242.965 318.934 242.993 318.907 242.993ZM254.981 244.412C254.925 244.412 254.869 244.412 254.813 244.384C252.92 243.911 250.999 243.41 249.106 242.854C248.8 242.771 248.605 242.437 248.716 242.131C248.8 241.825 249.134 241.63 249.44 241.742C251.305 242.298 253.199 242.798 255.092 243.271C255.398 243.355 255.593 243.661 255.537 243.994C255.454 244.217 255.231 244.384 254.981 244.412ZM332.187 238.293C331.937 238.321 331.714 238.182 331.603 237.931C331.464 237.625 331.631 237.292 331.909 237.153C333.691 236.402 335.501 235.595 337.255 234.761C337.561 234.622 337.895 234.733 338.034 235.039C338.174 235.345 338.062 235.679 337.756 235.818C336.002 236.652 334.164 237.459 332.355 238.237C332.327 238.265 332.243 238.293 332.187 238.293ZM241.477 240.268C241.393 240.268 241.31 240.268 241.226 240.24C239.389 239.572 237.551 238.821 235.741 238.043C235.435 237.904 235.296 237.57 235.435 237.264C235.574 236.958 235.909 236.819 236.215 236.958C237.997 237.709 239.834 238.46 241.644 239.127C241.95 239.239 242.117 239.572 242.006 239.878C241.922 240.129 241.728 240.268 241.477 240.268ZM344.828 232.119C344.605 232.146 344.382 232.035 344.271 231.813C344.104 231.535 344.215 231.173 344.494 231.006C346.192 230.061 347.863 229.059 349.505 228.03C349.784 227.863 350.146 227.947 350.313 228.225C350.48 228.503 350.396 228.865 350.118 229.032C348.447 230.061 346.749 231.09 345.051 232.035C345.023 232.091 344.939 232.119 344.828 232.119ZM228.558 234.622C228.447 234.622 228.363 234.622 228.252 234.566C226.498 233.676 224.744 232.731 223.045 231.785C222.767 231.618 222.656 231.257 222.823 230.978C222.99 230.7 223.352 230.589 223.63 230.756C225.328 231.701 227.055 232.647 228.781 233.509C229.059 233.648 229.198 234.01 229.031 234.316C228.948 234.51 228.753 234.622 228.558 234.622ZM356.689 224.526C356.494 224.526 356.299 224.443 356.16 224.276C355.965 223.998 356.021 223.636 356.299 223.441C357.858 222.301 359.445 221.105 360.949 219.909C361.199 219.715 361.589 219.742 361.784 219.993C361.979 220.243 361.951 220.632 361.7 220.827C360.169 222.051 358.582 223.247 356.995 224.387C356.911 224.47 356.8 224.526 356.689 224.526ZM216.363 227.558C216.252 227.558 216.113 227.53 216.001 227.474C214.359 226.389 212.744 225.277 211.157 224.109C210.906 223.914 210.823 223.553 211.017 223.274C211.212 223.024 211.574 222.941 211.853 223.135C213.412 224.276 215.027 225.388 216.669 226.473C216.948 226.64 217.031 227.029 216.836 227.279C216.725 227.446 216.53 227.558 216.363 227.558ZM367.603 215.626C367.436 215.626 367.241 215.571 367.13 215.431C366.907 215.181 366.935 214.82 367.157 214.597C368.577 213.29 369.997 211.927 371.362 210.564C371.584 210.342 371.974 210.342 372.197 210.564C372.42 210.787 372.42 211.176 372.197 211.399C370.805 212.789 369.385 214.152 367.937 215.487C367.881 215.571 367.742 215.626 367.603 215.626ZM205.059 219.158C204.92 219.158 204.753 219.13 204.642 219.019C203.138 217.768 201.635 216.461 200.215 215.126C199.964 214.903 199.964 214.542 200.187 214.291C200.409 214.041 200.771 214.041 201.022 214.263C202.442 215.571 203.918 216.878 205.421 218.129C205.672 218.352 205.7 218.713 205.505 218.964C205.365 219.075 205.198 219.13 205.059 219.158ZM377.459 205.558C377.32 205.558 377.153 205.53 377.042 205.419C376.791 205.197 376.763 204.835 376.986 204.585C378.267 203.111 379.52 201.609 380.717 200.079C380.912 199.829 381.301 199.773 381.552 199.968C381.803 200.163 381.858 200.552 381.663 200.802C380.438 202.332 379.185 203.862 377.905 205.336C377.738 205.475 377.598 205.53 377.459 205.558ZM194.785 209.508C194.618 209.508 194.451 209.452 194.312 209.313C192.976 207.894 191.639 206.42 190.358 204.946C190.136 204.696 190.163 204.335 190.414 204.112C190.665 203.89 191.027 203.917 191.249 204.168C192.53 205.642 193.839 207.088 195.175 208.478C195.398 208.729 195.398 209.09 195.147 209.313C195.036 209.452 194.897 209.508 194.785 209.508ZM386.09 194.433C385.951 194.433 385.84 194.406 385.728 194.322C385.45 194.128 385.394 193.766 385.589 193.488C386.703 191.903 387.761 190.234 388.791 188.593C388.958 188.315 389.32 188.231 389.598 188.398C389.877 188.565 389.96 188.927 389.793 189.205C388.763 190.874 387.677 192.542 386.564 194.155C386.424 194.322 386.257 194.406 386.09 194.433ZM185.653 198.772C185.458 198.772 185.263 198.717 185.152 198.55C183.982 196.992 182.813 195.379 181.699 193.766C181.504 193.488 181.588 193.126 181.866 192.932C182.145 192.737 182.507 192.82 182.702 193.098C183.788 194.712 184.929 196.297 186.098 197.827C186.293 198.077 186.238 198.466 185.987 198.661C185.876 198.744 185.764 198.772 185.653 198.772ZM393.413 182.391C393.301 182.391 393.19 182.363 393.107 182.335C392.828 182.168 392.717 181.835 392.856 181.529C393.775 179.804 394.666 178.052 395.473 176.3C395.612 175.994 395.974 175.883 396.253 176.022C396.559 176.161 396.67 176.523 396.531 176.801C395.696 178.581 394.805 180.333 393.886 182.085C393.803 182.252 393.608 182.363 393.413 182.391ZM177.829 187.091C177.607 187.119 177.384 187.008 177.272 186.813C176.27 185.116 175.323 183.392 174.405 181.668C174.265 181.39 174.377 181.028 174.655 180.861C174.934 180.722 175.296 180.833 175.463 181.112C176.354 182.836 177.328 184.532 178.303 186.201C178.47 186.479 178.386 186.841 178.08 187.008C178.024 187.063 177.913 187.091 177.829 187.091ZM399.315 169.57C399.232 169.57 399.148 169.57 399.065 169.542C398.759 169.43 398.619 169.069 398.731 168.763C399.455 166.955 400.123 165.12 400.735 163.256C400.847 162.95 401.181 162.783 401.487 162.895C401.793 163.006 401.96 163.34 401.849 163.646C401.209 165.509 400.541 167.372 399.817 169.18C399.733 169.43 399.538 169.57 399.315 169.57ZM171.398 174.576C171.147 174.604 170.924 174.464 170.813 174.214C170.006 172.434 169.254 170.599 168.558 168.763C168.446 168.457 168.586 168.123 168.892 167.984C169.198 167.873 169.532 168.012 169.671 168.318C170.368 170.126 171.119 171.934 171.899 173.714C172.038 174.019 171.899 174.353 171.593 174.492C171.537 174.548 171.453 174.576 171.398 174.576ZM403.715 156.192C403.659 156.192 403.575 156.192 403.52 156.164C403.213 156.081 403.018 155.747 403.102 155.441C403.603 153.55 404.049 151.659 404.466 149.74C404.522 149.434 404.856 149.211 405.162 149.295C405.469 149.35 405.691 149.684 405.608 149.99C405.19 151.909 404.745 153.828 404.216 155.747C404.188 155.997 403.965 156.164 403.715 156.192ZM166.442 161.393C166.163 161.421 165.913 161.254 165.829 160.976C165.245 159.112 164.688 157.193 164.214 155.302C164.131 154.996 164.326 154.662 164.632 154.579C164.938 154.495 165.272 154.69 165.356 154.996C165.857 156.859 166.386 158.751 166.971 160.614C167.054 160.92 166.887 161.254 166.581 161.365C166.525 161.393 166.497 161.393 166.442 161.393ZM406.527 142.369C406.499 142.369 406.443 142.369 406.415 142.369C406.081 142.314 405.858 142.036 405.914 141.702C406.193 139.783 406.443 137.836 406.61 135.889C406.638 135.556 406.944 135.333 407.251 135.361C407.585 135.389 407.807 135.695 407.78 136.001C407.585 137.947 407.362 139.922 407.083 141.869C407.056 142.147 406.805 142.369 406.527 142.369ZM163.017 147.737C162.711 147.765 162.46 147.542 162.405 147.264C162.043 145.345 161.709 143.398 161.43 141.452C161.374 141.118 161.597 140.84 161.931 140.784C162.265 140.729 162.544 140.951 162.6 141.285C162.878 143.204 163.184 145.151 163.546 147.042C163.602 147.376 163.407 147.682 163.073 147.737C163.073 147.737 163.045 147.737 163.017 147.737ZM407.752 128.352C407.724 128.352 407.724 128.352 407.696 128.352C407.362 128.352 407.111 128.074 407.111 127.74C407.167 125.794 407.167 123.847 407.139 121.9C407.139 121.566 407.39 121.316 407.724 121.288C408.058 121.288 408.309 121.538 408.336 121.872C408.364 123.819 408.364 125.821 408.309 127.768C408.309 128.074 408.058 128.324 407.752 128.352ZM161.152 133.776C160.818 133.803 160.539 133.553 160.511 133.219C160.483 132.747 160.456 132.302 160.428 131.829C160.344 130.327 160.261 128.825 160.205 127.323C160.205 126.989 160.456 126.739 160.79 126.711C161.124 126.711 161.402 126.962 161.402 127.295C161.458 128.769 161.514 130.271 161.597 131.773C161.625 132.218 161.653 132.691 161.681 133.136C161.736 133.47 161.486 133.748 161.152 133.776C161.18 133.776 161.18 133.776 161.152 133.776ZM407.362 114.279C407.028 114.307 406.749 114.057 406.722 113.751C406.554 111.832 406.36 109.857 406.081 107.938L406.053 107.744C405.998 107.41 406.248 107.132 406.554 107.076C406.889 107.02 407.167 107.271 407.223 107.577L407.251 107.771C407.501 109.718 407.724 111.693 407.891 113.64C407.947 113.946 407.724 114.252 407.362 114.279C407.39 114.279 407.39 114.279 407.362 114.279ZM160.901 119.703C160.873 119.703 160.873 119.703 160.845 119.703C160.511 119.703 160.261 119.425 160.289 119.091C160.372 117.144 160.483 115.142 160.651 113.195C160.678 112.861 160.957 112.638 161.291 112.666C161.625 112.694 161.848 112.972 161.82 113.306C161.653 115.225 161.542 117.2 161.458 119.146C161.43 119.425 161.207 119.675 160.901 119.703ZM405.357 100.151C405.079 100.179 404.8 99.984 404.745 99.6781C404.355 97.7869 403.937 95.8679 403.464 93.9766C403.38 93.6707 403.575 93.337 403.882 93.2535C404.188 93.1701 404.522 93.3648 404.605 93.6707C405.079 95.5619 405.524 97.5088 405.914 99.4278C405.97 99.7615 405.775 100.067 405.441 100.123C405.413 100.123 405.385 100.123 405.357 100.151ZM162.238 105.685C162.182 105.685 162.154 105.685 162.098 105.685C161.764 105.63 161.542 105.324 161.597 105.018C161.903 103.071 162.238 101.124 162.627 99.2053C162.683 98.8716 163.017 98.6769 163.323 98.7325C163.658 98.7881 163.852 99.1218 163.797 99.4278C163.407 101.319 163.073 103.266 162.767 105.185C162.739 105.463 162.516 105.658 162.238 105.685ZM401.793 86.523C401.543 86.5508 401.264 86.384 401.181 86.1059C400.596 84.2703 399.928 82.4069 399.26 80.5991C399.148 80.2932 399.288 79.9594 399.594 79.8482C399.9 79.7369 400.234 79.876 400.346 80.1819C401.042 82.0175 401.682 83.8809 402.295 85.7443C402.406 86.0502 402.211 86.384 401.905 86.4952C401.905 86.4952 401.849 86.523 401.793 86.523ZM165.189 91.8907C165.133 91.8907 165.05 91.8907 164.994 91.8629C164.688 91.7795 164.493 91.4458 164.576 91.1398C165.105 89.2486 165.662 87.3574 166.275 85.494C166.386 85.1881 166.72 85.0212 167.026 85.1046C167.333 85.2159 167.5 85.5496 167.416 85.8556C166.804 87.6911 166.247 89.5823 165.718 91.4457C165.662 91.6961 165.439 91.8629 165.189 91.8907ZM396.726 73.3958C396.476 73.4236 396.253 73.2845 396.141 73.062C395.334 71.3099 394.471 69.5299 393.58 67.8056C393.441 67.5275 393.552 67.1659 393.83 66.999C394.109 66.86 394.471 66.9712 394.638 67.2493C395.529 69.0015 396.392 70.7815 397.199 72.5614C397.339 72.8674 397.199 73.2011 396.893 73.3402C396.865 73.368 396.782 73.368 396.726 73.3958ZM169.727 78.5132C169.644 78.5132 169.56 78.5132 169.477 78.4576C169.17 78.3463 169.031 77.9848 169.142 77.6788C169.866 75.871 170.674 74.0355 171.481 72.2555C171.62 71.9496 171.982 71.8383 172.261 71.9774C172.567 72.1164 172.678 72.478 172.539 72.7561C171.732 74.5083 170.952 76.316 170.228 78.1238C170.145 78.3741 169.95 78.5132 169.727 78.5132ZM390.155 60.936C389.933 60.936 389.738 60.8526 389.598 60.6579C388.596 58.9892 387.538 57.3483 386.48 55.7352C386.285 55.4571 386.369 55.0955 386.647 54.9008C386.926 54.7061 387.288 54.7896 387.482 55.0677C388.568 56.6808 389.626 58.3773 390.656 60.046C390.824 60.3242 390.74 60.6857 390.462 60.8526C390.322 60.9082 390.239 60.936 390.155 60.936ZM175.741 65.7753C175.63 65.7753 175.518 65.7475 175.407 65.6919C175.129 65.525 175.017 65.1634 175.156 64.8853C176.103 63.161 177.078 61.4366 178.108 59.7679C178.275 59.4898 178.637 59.4064 178.915 59.5732C179.194 59.7401 179.277 60.1017 179.11 60.3798C178.108 62.0485 177.133 63.745 176.187 65.4416C176.103 65.6641 175.936 65.7753 175.741 65.7753ZM382.192 49.3106C381.997 49.3106 381.803 49.255 381.691 49.0881C380.494 47.5585 379.269 46.0288 378.016 44.5548C377.793 44.3045 377.821 43.9429 378.072 43.7204C378.322 43.4979 378.684 43.5257 378.907 43.776C380.188 45.2779 381.413 46.8075 382.61 48.365C382.805 48.6153 382.749 49.0047 382.499 49.1994C382.443 49.2828 382.332 49.3106 382.192 49.3106ZM183.147 53.7884C183.008 53.7884 182.897 53.7605 182.757 53.6771C182.479 53.4824 182.423 53.1209 182.618 52.8427C183.732 51.2297 184.929 49.6444 186.126 48.0869C186.321 47.8366 186.711 47.781 186.962 47.9757C187.212 48.1703 187.268 48.5597 187.073 48.81C185.876 50.3397 184.706 51.9249 183.593 53.5102C183.481 53.7049 183.314 53.7884 183.147 53.7884ZM372.977 38.6865C372.809 38.6865 372.642 38.6308 372.503 38.5196C371.139 37.129 369.747 35.7662 368.327 34.4312C368.076 34.2087 368.076 33.8194 368.299 33.5969C368.522 33.3466 368.912 33.3466 369.134 33.5691C370.554 34.904 371.974 36.2946 373.339 37.713C373.561 37.9355 373.561 38.3249 373.339 38.5474C373.255 38.6308 373.116 38.6865 372.977 38.6865ZM191.89 42.747C191.75 42.747 191.583 42.7192 191.472 42.6079C191.221 42.3854 191.194 42.0239 191.416 41.7736C192.725 40.2995 194.061 38.8533 195.426 37.4627C195.648 37.2402 196.038 37.2124 196.261 37.4627C196.484 37.6852 196.512 38.0746 196.261 38.2971C194.897 39.6877 193.56 41.1339 192.279 42.5801C192.196 42.6636 192.029 42.7192 191.89 42.747ZM362.591 29.147C362.452 29.147 362.285 29.1191 362.174 29.0079C360.67 27.7842 359.111 26.5604 357.552 25.4202C357.301 25.2255 357.246 24.8639 357.441 24.5858C357.635 24.3355 357.997 24.2799 358.276 24.4745C359.863 25.6427 361.422 26.8664 362.925 28.1179C363.176 28.3126 363.204 28.702 363.009 28.9523C362.925 29.0635 362.758 29.147 362.591 29.147ZM201.802 32.7347C201.635 32.7347 201.44 32.6791 201.328 32.54C201.106 32.2897 201.133 31.9282 201.384 31.7057C202.832 30.3985 204.335 29.1191 205.867 27.8676C206.117 27.6729 206.507 27.7007 206.702 27.951C206.897 28.2014 206.869 28.5907 206.618 28.7854C205.115 30.0091 203.611 31.2885 202.191 32.5956C202.08 32.6791 201.941 32.7347 201.802 32.7347ZM351.204 20.859C351.092 20.859 350.953 20.8312 350.842 20.7756C349.199 19.7187 347.529 18.6897 345.858 17.7162C345.58 17.5494 345.468 17.1878 345.635 16.9097C345.802 16.6316 346.164 16.5203 346.443 16.6872C348.141 17.6606 349.84 18.7175 351.482 19.7743C351.761 19.9412 351.844 20.3306 351.649 20.5809C351.566 20.7477 351.399 20.859 351.204 20.859ZM212.799 23.9461C212.604 23.9461 212.41 23.8627 212.27 23.6958C212.075 23.4177 212.131 23.0561 212.41 22.8615C213.997 21.7212 215.639 20.6087 217.282 19.5518C217.56 19.385 217.922 19.4684 218.089 19.7187C218.256 19.9968 218.173 20.3584 217.922 20.5252C216.28 21.5821 214.665 22.6668 213.078 23.7792C213.022 23.9183 212.911 23.9461 212.799 23.9461ZM338.953 13.906C338.842 13.906 338.758 13.906 338.647 13.8504C336.893 12.9882 335.111 12.1538 333.329 11.3751C333.023 11.2361 332.884 10.9023 333.023 10.5964C333.162 10.2904 333.496 10.1514 333.802 10.2904C335.612 11.0692 337.394 11.9035 339.148 12.7935C339.454 12.9326 339.566 13.2941 339.426 13.6001C339.343 13.7669 339.148 13.906 338.953 13.906ZM224.716 16.4647C224.493 16.4925 224.27 16.3535 224.159 16.1588C223.992 15.8807 224.103 15.5191 224.382 15.3522C226.108 14.4066 227.862 13.4888 229.616 12.6267C229.922 12.4876 230.257 12.5988 230.396 12.9048C230.535 13.2107 230.424 13.5444 230.117 13.6835C228.363 14.5457 226.637 15.4357 224.939 16.3813C224.911 16.4369 224.799 16.4647 224.716 16.4647ZM325.951 8.39923C325.867 8.39923 325.784 8.39923 325.7 8.37142C323.863 7.70393 321.997 7.09207 320.132 6.53583C319.825 6.4524 319.631 6.11865 319.742 5.78491C319.825 5.47898 320.16 5.28429 320.494 5.39554C322.359 5.97959 324.252 6.59145 326.118 7.25894C326.424 7.37019 326.591 7.70393 326.48 8.00986C326.396 8.23236 326.173 8.37142 325.951 8.39923ZM237.44 10.4017C237.189 10.4295 236.939 10.2904 236.855 10.0401C236.744 9.73421 236.883 9.40046 237.189 9.2614C238.999 8.51048 240.864 7.81518 242.702 7.14769C243.008 7.03645 243.342 7.20332 243.454 7.50925C243.565 7.81518 243.398 8.14892 243.092 8.26017C241.254 8.89985 239.417 9.59515 237.635 10.3461C237.579 10.3739 237.496 10.4017 237.44 10.4017ZM312.419 4.39431C312.364 4.39431 312.308 4.39431 312.252 4.3665C310.359 3.92151 308.438 3.53214 306.517 3.17058C306.183 3.11496 305.988 2.80903 306.043 2.47528C306.099 2.14154 306.405 1.94686 306.74 2.00248C308.661 2.36404 310.61 2.7534 312.531 3.1984C312.837 3.28183 313.06 3.58776 312.976 3.92151C312.893 4.19963 312.67 4.39431 312.419 4.39431ZM250.776 5.81272C250.498 5.84053 250.247 5.64585 250.164 5.39554C250.08 5.08961 250.247 4.75587 250.581 4.67243C252.475 4.144 254.396 3.64339 256.289 3.22621C256.595 3.14277 256.929 3.36527 257.013 3.6712C257.097 3.97713 256.874 4.31087 256.568 4.39431C254.674 4.8393 252.781 5.3121 250.888 5.84053C250.86 5.81272 250.804 5.81272 250.776 5.81272ZM298.526 1.97467C298.498 1.97467 298.443 1.97467 298.415 1.97467C296.494 1.75217 294.517 1.5853 292.596 1.44624C292.261 1.41843 292.011 1.14031 292.039 0.806567C292.067 0.472823 292.345 0.222516 292.679 0.250328C294.628 0.389388 296.605 0.556259 298.554 0.778755C298.888 0.806567 299.111 1.1125 299.083 1.44624C299.027 1.75217 298.804 1.97467 298.526 1.97467ZM264.53 2.78122C264.224 2.80903 263.946 2.58653 263.918 2.2806C263.862 1.94686 264.085 1.64093 264.419 1.61311C265.616 1.41843 266.841 1.25156 268.066 1.08469C268.79 1.00125 269.542 0.890003 270.266 0.806567C270.6 0.778755 270.879 1.00125 270.934 1.33499C270.962 1.66874 270.739 1.94686 270.405 2.00248C269.681 2.08592 268.957 2.16935 268.234 2.2806C267.036 2.44747 265.811 2.61434 264.614 2.80903C264.586 2.78122 264.558 2.78122 264.53 2.78122ZM284.438 1.19593H284.41C282.461 1.19593 280.512 1.25156 278.563 1.33499C278.229 1.36281 277.951 1.08469 277.951 0.778755C277.923 0.445011 278.173 0.166892 278.507 0.166892C280.456 0.083456 282.461 0.027832 284.41 0.027832C284.744 0.027832 284.995 0.305952 284.995 0.611883C284.995 0.917815 284.744 1.16812 284.438 1.19593Z" fill="#DEDEDE"/>
<path d="M303.9 73.5905V277.202H303.371L287.946 262.211L272.494 277.202H270.907L255.454 262.211L240.03 277.202H238.443L223.046 262.239L207.621 277.202H206.062L190.637 262.239L175.212 277.202H173.57L158.145 262.239L142.72 277.202H141.133L125.737 262.267L110.34 277.202H109.31V16.9931H247.269L303.9 73.5905Z" fill="#F2F2F2"/>
<path d="M303.9 73.5905H247.269V16.9931L303.9 73.5905Z" fill="#DEDEDE"/>
<path d="M161.681 179.526V171.906H141.105C138.516 171.906 136.567 171.322 135.259 170.154C133.95 168.985 133.31 167.372 133.31 165.37C133.31 164.841 133.393 164.313 133.588 163.785C133.783 163.256 134.061 162.7 134.451 162.116C134.841 161.532 135.231 160.976 135.648 160.419C136.066 159.863 136.567 159.196 137.152 158.417L158.869 129.381C160.289 127.462 161.458 126.072 162.377 125.237C163.296 124.375 164.382 123.958 165.662 123.958C169.811 123.958 171.899 126.322 171.899 131.078V162.756H173.653C175.769 162.756 177.44 163.034 178.721 163.618C180.001 164.202 180.614 165.453 180.614 167.372C180.614 168.958 180.085 170.098 179.055 170.821C178.024 171.544 176.465 171.906 174.377 171.906H171.871V179.526C171.871 181.64 171.398 183.197 170.479 184.226C169.56 185.255 168.307 185.756 166.748 185.756C165.217 185.756 163.992 185.228 163.045 184.171C162.154 183.114 161.681 181.556 161.681 179.526ZM144.057 162.728H161.681V138.949L144.057 162.728Z" fill="#F38DB7"/>
<path d="M228.085 155.274C228.085 159.752 227.806 163.59 227.277 166.816C226.721 170.042 225.718 172.963 224.243 175.577C222.377 178.803 219.983 181.278 217.031 183.031C214.08 184.783 210.795 185.645 207.203 185.645C203.055 185.645 199.324 184.477 196.038 182.113C192.753 179.777 190.275 176.523 188.604 172.379C187.769 170.126 187.129 167.623 186.739 164.869C186.349 162.116 186.154 159.168 186.154 155.969C186.154 151.853 186.377 148.127 186.823 144.845C187.268 141.535 187.936 138.698 188.883 136.334C190.498 132.413 192.836 129.409 195.899 127.351C198.962 125.293 202.637 124.264 206.897 124.264C209.709 124.264 212.27 124.709 214.554 125.627C216.837 126.544 218.869 127.879 220.595 129.632C222.322 131.384 223.797 133.581 224.994 136.167C227.055 140.673 228.085 147.042 228.085 155.274ZM216.864 154.468C216.864 149.462 216.558 145.373 215.973 142.203C215.361 139.032 214.359 136.612 212.939 134.999C211.519 133.386 209.542 132.552 207.036 132.552C203.417 132.552 200.911 134.36 199.519 138.003C198.099 141.646 197.403 147.237 197.403 154.801C197.403 159.947 197.709 164.146 198.294 167.4C198.906 170.682 199.908 173.157 201.328 174.826C202.748 176.495 204.669 177.357 207.12 177.357C209.625 177.357 211.602 176.495 213.022 174.743C214.442 172.99 215.444 170.487 216.001 167.261C216.558 163.979 216.864 159.724 216.864 154.468Z" fill="#F38DB7"/>
<path d="M261.441 179.526V171.906H240.865C238.276 171.906 236.327 171.322 235.018 170.154C233.71 168.985 233.069 167.372 233.069 165.37C233.069 164.841 233.153 164.313 233.348 163.785C233.543 163.256 233.821 162.7 234.211 162.116C234.601 161.532 234.99 160.976 235.408 160.419C235.826 159.863 236.327 159.196 236.912 158.417L258.629 129.381C260.049 127.462 261.218 126.072 262.137 125.237C263.056 124.375 264.141 123.958 265.422 123.958C269.571 123.958 271.659 126.322 271.659 131.078V162.756H273.413C275.529 162.756 277.199 163.034 278.48 163.618C279.761 164.202 280.373 165.453 280.373 167.372C280.373 168.958 279.844 170.098 278.814 170.821C277.784 171.544 276.225 171.906 274.137 171.906H271.631V179.526C271.631 181.64 271.158 183.197 270.239 184.226C269.32 185.255 268.067 185.756 266.508 185.756C264.977 185.756 263.752 185.228 262.805 184.171C261.914 183.114 261.441 181.556 261.441 179.526ZM243.816 162.728H261.441V138.949L243.816 162.728Z" fill="#F38DB7"/>
<path d="M205.087 336.998C202.414 339.668 198.071 339.668 195.37 336.998L153.718 295.363L148.428 290.079C152.27 287.548 155.583 284.238 158.145 280.372L205.115 327.291C207.788 329.961 207.788 334.3 205.087 336.998Z" fill="#9C9C9C"/>
<path d="M160.234 282.486L171.092 293.333C168.558 297.171 165.245 300.48 161.375 303.039L155.807 297.477L150.517 292.192C154.387 289.634 157.7 286.324 160.234 282.486Z" fill="#5E5E5E"/>
<path d="M171.064 259.903C170.98 258.151 170.813 256.426 170.507 254.73C168.864 245.107 163.908 236.624 156.864 230.478C149.597 224.164 140.103 220.326 129.718 220.326C106.859 220.326 88.3164 238.849 88.3164 261.683C88.3164 263.268 88.3999 264.826 88.567 266.355C89.096 271.167 90.4881 275.728 92.5206 279.9C95.4719 285.879 99.8153 291.052 105.161 294.974C106.024 295.613 106.915 296.225 107.834 296.781C114.182 300.731 121.672 303.011 129.718 303.011C138.683 303.011 146.952 300.175 153.746 295.335C157.505 292.665 160.79 289.383 163.463 285.629C166.136 281.874 168.224 277.647 169.533 273.086C170.591 269.442 171.147 265.604 171.147 261.655C171.092 261.071 171.092 260.487 171.064 259.903ZM129.718 295.669C122.284 295.669 115.379 293.277 109.783 289.217C104.354 285.295 100.122 279.788 97.755 273.364C96.4185 269.72 95.6946 265.771 95.6946 261.655C95.6946 260.097 95.806 258.596 96.0009 257.094C97.6993 244.495 106.303 234.065 117.885 229.782C121.56 228.42 125.57 227.669 129.718 227.669C131.222 227.669 132.697 227.752 134.145 227.947C141.05 228.837 147.287 231.813 152.243 236.179C159.287 242.409 163.714 251.504 163.714 261.655C163.714 262.183 163.714 262.684 163.686 263.212C163.574 265.716 163.185 268.135 162.572 270.471C161.625 274.031 160.094 277.369 158.117 280.372C155.584 284.21 152.27 287.52 148.4 290.079C147.454 290.691 146.479 291.275 145.477 291.803C143.333 292.943 141.022 293.833 138.628 294.473C135.788 295.252 132.809 295.669 129.718 295.669Z" fill="#B8B8B8"/>
<path d="M103.936 265.41C102.182 265.41 100.762 263.991 100.762 262.239C100.762 254.368 103.824 246.97 109.393 241.38C114.961 235.818 122.367 232.758 130.275 232.758C132.029 232.758 133.449 234.177 133.449 235.929C133.449 237.681 132.029 239.1 130.275 239.1C124.094 239.1 118.275 241.519 113.903 245.886C109.532 250.252 107.11 256.065 107.11 262.239C107.11 263.991 105.69 265.41 103.936 265.41Z" fill="white"/>
</g>
<defs>
<clipPath id="clip0">
<rect width="419" height="339" fill="white"/>
</clipPath>
</defs>
</svg>
