<svg width="575" height="421" viewBox="0 0 575 421" fill="none" xmlns="http://www.w3.org/2000/svg">
<path opacity="0.2" d="M540.416 374.555C545.646 374.555 549.622 375.838 552.343 378.404C555.065 380.969 556.425 384.725 556.425 389.672C556.425 394.548 555.057 398.29 552.322 400.898C549.586 403.492 545.603 404.789 540.373 404.789C535.199 404.789 531.252 403.499 528.531 400.919C525.795 398.325 524.427 394.562 524.427 389.63C524.427 384.683 525.781 380.934 528.488 378.383C531.195 375.831 535.171 374.555 540.416 374.555ZM540.416 395.944C546.425 395.944 549.43 393.854 549.43 389.672C549.43 387.546 548.7 385.973 547.24 384.952C545.78 383.917 543.506 383.4 540.416 383.4C537.311 383.4 535.022 383.925 533.548 384.973C532.06 386.008 531.316 387.56 531.316 389.63C531.316 393.839 534.349 395.944 540.416 395.944ZM545.901 345.959C549.161 345.959 551.663 347.079 553.406 349.318C555.135 351.544 556 354.761 556 358.971V368.943H524.916V348.489H531.656V360.502H536.397V359.29C536.397 354.939 537.191 351.629 538.778 349.361C540.352 347.093 542.726 345.959 545.901 345.959ZM549.515 360.502V359.375C549.515 357.617 549.225 356.356 548.644 355.591C548.062 354.825 547.205 354.442 546.071 354.442C544.937 354.442 544.101 354.853 543.562 355.676C543.024 356.484 542.754 357.731 542.754 359.418V360.502H549.515ZM540.416 311.665C545.646 311.665 549.622 312.948 552.343 315.513C555.065 318.079 556.425 321.835 556.425 326.782C556.425 331.658 555.057 335.4 552.322 338.008C549.586 340.601 545.603 341.898 540.373 341.898C535.199 341.898 531.252 340.609 528.531 338.029C525.795 335.435 524.427 331.672 524.427 326.739C524.427 321.792 525.781 318.043 528.488 315.492C531.195 312.941 535.171 311.665 540.416 311.665ZM540.416 333.054C546.425 333.054 549.43 330.963 549.43 326.782C549.43 324.656 548.7 323.082 547.24 322.062C545.78 321.027 543.506 320.51 540.416 320.51C537.311 320.51 535.022 321.034 533.548 322.083C532.06 323.118 531.316 324.67 531.316 326.739C531.316 330.949 534.349 333.054 540.416 333.054ZM534.803 283.494C538.275 283.494 540.961 284.522 542.861 286.577C544.746 288.618 545.688 291.524 545.688 295.294V297.654H556V306.052H524.916V295.294C524.916 291.368 525.774 288.419 527.489 286.449C529.204 284.479 531.642 283.494 534.803 283.494ZM538.842 297.654V296.123C538.842 294.862 538.488 293.862 537.779 293.125C537.07 292.374 536.092 291.998 534.845 291.998C532.747 291.998 531.698 293.161 531.698 295.485V297.654H538.842ZM556.425 274.543C556.425 276.527 556.213 278.342 555.787 279.986H549.111C549.636 278.653 549.898 276.967 549.898 274.926C549.898 274.047 549.7 273.31 549.303 272.715C548.892 272.105 548.176 271.609 547.155 271.226L524.916 281.368V272.311L534.399 268.484C534.767 268.342 535.207 268.172 535.717 267.973C536.227 267.761 536.759 267.555 537.311 267.357C537.85 267.158 538.389 266.974 538.927 266.804C539.466 266.634 539.934 266.499 540.331 266.4V266.102C538.403 265.62 536.149 264.905 533.569 263.955L524.916 260.787V251.73L546.73 261.17C549.452 262.346 551.457 263.501 552.747 264.635C554.023 265.769 554.958 267.13 555.554 268.717C556.135 270.291 556.425 272.233 556.425 274.543ZM565.674 217.563V225.749H556V243.863H565.674V252.049H549.111V249.476C545.965 247.619 542.329 246.088 538.204 244.884C534.066 243.679 529.636 242.899 524.916 242.545V221.815H549.111V217.563H565.674ZM549.111 230.277H531.784V235.805C537.85 236.386 543.626 237.981 549.111 240.589V230.277ZM540.416 184.311C545.646 184.311 549.622 185.593 552.343 188.159C555.064 190.724 556.425 194.481 556.425 199.427C556.425 204.303 555.057 208.045 552.322 210.653C549.586 213.247 545.603 214.544 540.373 214.544C535.199 214.544 531.252 213.254 528.531 210.674C525.795 208.081 524.427 204.317 524.427 199.385C524.427 194.438 525.781 190.689 528.488 188.138C531.195 185.586 535.171 184.311 540.416 184.311ZM540.416 205.699C546.425 205.699 549.43 203.609 549.43 199.427C549.43 197.301 548.7 195.728 547.24 194.707C545.78 193.673 543.506 193.155 540.416 193.155C537.311 193.155 535.022 193.68 533.548 194.729C532.06 195.763 531.316 197.315 531.316 199.385C531.316 203.594 534.349 205.699 540.416 205.699ZM524.916 178.698V167.854C524.916 163.631 525.547 160.498 526.808 158.457C528.056 156.402 530.005 155.374 532.655 155.374C534.399 155.374 535.887 155.821 537.12 156.714C538.353 157.607 539.147 158.783 539.501 160.243H539.714C540.224 158.315 541.075 156.919 542.265 156.055C543.456 155.19 545.001 154.758 546.9 154.758C549.721 154.758 551.946 155.821 553.576 157.947C555.192 160.059 556 162.943 556 166.6V178.698H524.916ZM536.844 170.299V167.769C536.844 166.565 536.596 165.636 536.1 164.984C535.603 164.318 534.866 163.985 533.888 163.985C532.145 163.985 531.273 165.303 531.273 167.94V170.299H536.844ZM542.988 170.299H549.515V167.344C549.515 164.722 548.41 163.411 546.199 163.411C545.164 163.411 544.37 163.765 543.817 164.474C543.265 165.168 542.988 166.182 542.988 167.514V170.299ZM556 130.286L550.174 131.817V141.916L556 143.489V152.717L524.789 142.575V131.37L556 121.101V130.286ZM543.286 133.56L538.183 134.9C537.049 135.211 535.582 135.594 533.782 136.048C531.982 136.487 530.692 136.778 529.913 136.919C530.635 137.047 531.826 137.302 533.484 137.685C535.143 138.053 538.41 138.883 543.286 140.172V133.56ZM556 91.0804V99.5211H543.328V109.28H556V117.721H524.916V109.28H536.44V99.5211H524.916V91.0804H556ZM524.916 84.3406V76.8567H538.268C539.686 76.8567 542.52 76.9701 546.773 77.1969V77.0268L524.916 64.6315V54.2561H556V61.6975H542.988C541.018 61.6975 538.07 61.5699 534.144 61.3148V61.4849L556 73.9864V84.3406H524.916ZM556 29.0616V47.5163H524.916V29.0616H531.656V39.1181H536.546V29.8057H543.286V39.1181H549.154V29.0616H556Z" fill="white"/>
<path opacity="0.4" d="M488.5 419H573V2.5H2V311" stroke="white" stroke-width="4"/>
</svg>
