<svg width="16" height="16" viewBox="0 0 16 16" fill="none" xmlns="http://www.w3.org/2000/svg">
<path d="M6.6254 9.37484C5.09823 7.84766 4.7534 6.32049 4.67561 5.70863C4.65387 5.53945 4.71209 5.36978 4.83313 5.24959L6.06899 4.01428C6.25078 3.8326 6.28305 3.54945 6.14678 3.33153L4.17906 0.276077C4.0283 0.0347661 3.71876 -0.0523254 3.4643 0.0749733L0.3054 1.5627C0.0996235 1.66402 -0.0214116 1.88266 0.00195206 2.11084C0.167469 3.68325 0.852986 7.54863 4.65161 11.3475C8.45023 15.1464 12.3151 15.8317 13.8883 15.9972C14.1165 16.0205 14.3351 15.8995 14.4364 15.6937L15.9242 12.5348C16.051 12.2809 15.9645 11.9722 15.7242 11.8212L12.6687 9.85401C12.4509 9.7176 12.1678 9.74963 11.986 9.93125L10.7506 11.1671C10.6305 11.2881 10.4608 11.3464 10.2916 11.3246C9.67975 11.2468 8.15257 10.902 6.6254 9.37484Z" fill="white"/>
<path d="M12.6897 8.55189C12.385 8.55189 12.138 8.30488 12.138 8.00017C12.1354 5.71592 10.2843 3.86482 8.00003 3.86224C7.69532 3.86224 7.4483 3.61522 7.4483 3.31051C7.4483 3.0058 7.69532 2.75879 8.00003 2.75879C10.8934 2.76198 13.2382 5.10676 13.2414 8.00017C13.2414 8.30488 12.9944 8.55189 12.6897 8.55189Z" fill="white"/>
<path d="M15.4483 8.55172C15.1436 8.55172 14.8966 8.30471 14.8966 8C14.8923 4.1929 11.8071 1.10771 8.00003 1.10345C7.69532 1.10345 7.4483 0.856433 7.4483 0.551724C7.4483 0.247015 7.69532 0 8.00003 0C12.4163 0.00486507 15.9952 3.58374 16 8C16 8.14633 15.9419 8.28666 15.8384 8.39013C15.735 8.4936 15.5946 8.55172 15.4483 8.55172Z" fill="white"/>
</svg>
