<svg width="93" height="68" viewBox="0 0 93 68" fill="none" xmlns="http://www.w3.org/2000/svg">
<path d="M34.0268 0V5.4031C26.3193 9.44444 20.8014 13.6615 17.4732 18.0543C14.145 22.447 12.4809 27.2351 12.4809 32.4186C12.4809 35.4935 12.9188 37.6021 13.7946 38.7442C14.5829 39.9742 15.5463 40.5891 16.6849 40.5891C17.8236 40.5891 19.3563 40.2817 21.2832 39.6667C23.21 38.9638 24.9617 38.6124 26.5383 38.6124C30.1293 38.6124 33.2385 39.9742 35.8661 42.6977C38.5812 45.3333 39.9388 48.584 39.9388 52.4496C39.9388 56.6667 38.3185 60.3127 35.0778 63.3876C31.8372 66.3747 27.8082 67.8682 22.9911 67.8682C17.1229 67.8682 11.824 65.3204 7.09439 60.2248C2.3648 55.1292 0 48.8475 0 41.3798C0 32.5943 2.89031 24.4238 8.67092 16.8682C14.5391 9.22481 22.9911 3.60207 34.0268 0ZM86.6939 0.395349V5.4031C77.8478 10.4987 72.0234 15.0672 69.2207 19.1085C66.4179 23.1499 65.0166 27.8941 65.0166 33.3411C65.0166 35.801 65.4983 37.646 66.4617 38.876C67.4252 40.1059 68.4324 40.7209 69.4834 40.7209C70.4468 40.7209 71.892 40.3695 73.8189 39.6667C75.7458 38.9638 77.6726 38.6124 79.5995 38.6124C83.1905 38.6124 86.2997 39.9302 88.9273 42.5659C91.6424 45.1137 93 48.2765 93 52.0543C93 56.3592 91.2921 60.093 87.8763 63.2558C84.548 66.4186 80.4315 68 75.5268 68C69.7462 68 64.5349 65.4961 59.8929 60.4884C55.2508 55.4806 52.9298 49.2429 52.9298 41.7752C52.9298 32.5504 55.8639 24.1602 61.7321 16.6047C67.6003 8.96124 75.9209 3.55814 86.6939 0.395349Z" fill="#F38DB7"/>
</svg>
